<?xml version="1.0" encoding="UTF-8" standalone="no"?><!DOCTYPE svg PUBLIC "-//W3C//DTD SVG 1.1//EN" "http://www.w3.org/Graphics/SVG/1.1/DTD/svg11.dtd"><svg width="100%" height="100%" viewBox="0 0 36 36" version="1.1" xmlns="http://www.w3.org/2000/svg" xmlns:xlink="http://www.w3.org/1999/xlink" xml:space="preserve" xmlns:serif="http://www.serif.com/" style="fill-rule:evenodd;clip-rule:evenodd;stroke-linejoin:round;stroke-miterlimit:2;"><g><path d="M35.239,19.004c-0,1.852 -0.337,3.63 -0.957,5.289c-2.2,5.884 -7.966,10.238 -14.919,10.867c-0.573,0.052 -1.155,0.079 -1.744,0.079c-9.73,-0 -17.619,-7.269 -17.619,-16.235c-0,-2.986 0.875,-5.488 2.402,-7.496c1.252,-1.648 2.943,-2.964 4.948,-3.943c0.094,-0.046 0.188,-0.091 0.283,-0.135c2.838,-1.322 6.279,-1.99 9.986,-1.99c0.589,0 1.17,0.017 1.744,0.051c2.937,0.171 5.661,0.783 7.996,1.827c0.094,0.041 0.188,0.085 0.282,0.128c4.591,2.151 7.598,6.022 7.598,11.558Z" style="fill:#cd2a00;fill-rule:nonzero;"/><path d="M35.239,19.004c-0,1.852 -0.337,3.63 -0.957,5.289c-2.832,4.106 -7.61,6.96 -13.138,7.46c-0.573,0.052 -1.155,0.079 -1.743,0.079c-9.731,-0 -17.619,-7.269 -17.619,-16.235c-0,-1.484 0.216,-2.847 0.62,-4.09c1.252,-1.647 2.943,-2.963 4.948,-3.942c2.892,-1.412 6.438,-2.125 10.269,-2.125c0.588,0 1.17,0.017 1.743,0.051c3.057,0.178 5.883,0.833 8.279,1.955c4.591,2.151 7.598,6.022 7.598,11.558Z" style="fill:#ff3501;fill-rule:nonzero;"/><path d="M27.83,12.896l-3.939,-3.382c-0.504,-0.433 -0.308,-1.24 0.341,-1.404l2.917,-0.739c0.071,-0.018 0.08,-0.112 0.013,-0.141c-2.274,-0.989 -4.918,-1.661 -7.749,-1.832l2.619,-3.671c1.084,-1.727 -0.09,-1.727 -1.083,-1.727c-0.993,0 -2.167,1.382 -2.527,1.727l-2.619,3.672c-2.847,0.173 -5.484,0.844 -7.765,1.847c-0.134,0.059 -0.114,0.248 0.031,0.28l2.484,0.551c0.678,0.15 0.882,0.998 0.343,1.428l-3.75,2.994c-0.344,0.275 -0.044,0.813 0.379,0.676l7.322,-2.366c0.452,-0.145 0.938,0.108 1.066,0.557l1.289,4.549c0.11,0.386 0.672,0.382 0.775,-0.007l1.195,-4.503c0.125,-0.472 0.644,-0.732 1.109,-0.556l7.14,2.708c0.417,0.158 0.746,-0.372 0.409,-0.661Z" style="fill:#5eac24;fill-rule:nonzero;"/></g></svg>