<?xml version="1.0" encoding="UTF-8" standalone="no"?><!DOCTYPE svg PUBLIC "-//W3C//DTD SVG 1.1//EN" "http://www.w3.org/Graphics/SVG/1.1/DTD/svg11.dtd"><svg width="100%" height="100%" viewBox="0 0 46 46" version="1.1" xmlns="http://www.w3.org/2000/svg" xmlns:xlink="http://www.w3.org/1999/xlink" xml:space="preserve" xmlns:serif="http://www.serif.com/" style="fill-rule:evenodd;clip-rule:evenodd;stroke-linejoin:round;stroke-miterlimit:2;"><g><path d="M45.651,24.618c-0,2.4 -0.436,4.704 -1.239,6.853c-2.85,7.622 -10.321,13.262 -19.329,14.077c-0.742,0.068 -1.496,0.103 -2.258,0.103c-12.606,-0 -22.825,-9.417 -22.825,-21.033c-0,-3.868 1.134,-7.108 3.111,-9.71c1.623,-2.135 3.814,-3.839 6.411,-5.108c0.121,-0.059 0.244,-0.117 0.366,-0.175c3.677,-1.712 8.135,-2.577 12.937,-2.577c0.762,-0 1.515,0.021 2.258,0.065c3.806,0.222 7.335,1.015 10.359,2.367c0.123,0.053 0.245,0.11 0.365,0.166c5.948,2.787 9.844,7.801 9.844,14.972Z" style="fill:#868383;fill-rule:nonzero;"/><path d="M45.651,24.618c-0,2.4 -0.436,4.704 -1.239,6.853c-3.669,5.319 -9.859,9.016 -17.02,9.664c-0.743,0.067 -1.497,0.102 -2.259,0.102c-12.606,0 -22.825,-9.417 -22.825,-21.032c0,-1.922 0.28,-3.688 0.803,-5.298c1.623,-2.134 3.814,-3.838 6.411,-5.107c3.746,-1.829 8.339,-2.753 13.303,-2.753c0.762,0 1.515,0.022 2.258,0.066c3.96,0.231 7.621,1.079 10.724,2.533c5.948,2.787 9.844,7.801 9.844,14.972Z" style="fill:#a0a0a0;fill-rule:nonzero;"/><path d="M36.053,16.706l-5.103,-4.381c-0.652,-0.561 -0.399,-1.606 0.441,-1.819l3.78,-0.958c0.091,-0.023 0.103,-0.144 0.016,-0.182c-2.945,-1.281 -6.37,-2.152 -10.038,-2.373l3.393,-4.756c1.404,-2.237 -0.117,-2.237 -1.403,-2.237c-1.286,-0 -2.808,1.79 -3.275,2.237l-3.392,4.757c-3.688,0.224 -7.104,1.093 -10.059,2.393c-0.174,0.077 -0.147,0.322 0.04,0.363l3.218,0.714c0.879,0.194 1.143,1.293 0.445,1.85l-4.858,3.878c-0.447,0.356 -0.057,1.053 0.491,0.876l9.485,-3.065c0.586,-0.189 1.215,0.14 1.38,0.721l1.671,5.893c0.142,0.5 0.87,0.495 1.003,-0.009l1.549,-5.833c0.162,-0.612 0.833,-0.949 1.436,-0.72l9.249,3.507c0.542,0.206 0.967,-0.481 0.531,-0.856Z" style="fill:#5b5b5b;fill-rule:nonzero;"/></g></svg>